<svg xmlns="http://www.w3.org/2000/svg" viewBox="0 0 64 64" role="img" aria-label="Macros and Mamas">
  <rect width="64" height="64" rx="14" fill="#B4416B"/>
  <!-- Stylized M -->
  <path
    fill="#FFFFFF"
    d="M14.5 48c-1.4 0-2.5-1.1-2.5-2.5V18.5c0-1.4 1.1-2.5 2.5-2.5s2.5 1.1 2.5 2.5v22.2L30.2 24c.9-.9 2.4-.9 3.3 0L44.5 35.2V18.5c0-1.4 1.1-2.5 2.5-2.5s2.5 1.1 2.5 2.5v27c0 1.4-1.1 2.5-2.5 2.5s-2.5-1.1-2.5-2.5V41.8L32.8 29.9 17 41.8v3.7c0 1.4-1.1 2.5-2.5 2.5z"
  />
  <!-- Heart nestled in the M valley -->
  <path
    fill="#FFFFFF"
    d="M32 49.2c-.4 0-.7-.1-1-.4l-4.1-4c-1.7-1.7-1.7-4.4 0-6.1 1.6-1.6 4.2-1.7 5.9-.2l-.1.1.3.3.3-.3-.1-.1c1.7-1.5 4.3-1.4 5.9.2 1.7 1.7 1.7 4.4 0 6.1l-4.1 4c-.3.3-.6.4-1 .4z"
  />
</svg>
